<svg width="375" height="120" viewBox="0 0 375 120" fill="none" xmlns="http://www.w3.org/2000/svg">
<rect x="17" y="8" width="104" height="104" rx="52" stroke="#C4B5A0" stroke-width="3"/>
<circle cx="69" cy="60" r="44" stroke="#C4B5A0" stroke-opacity="0.5" stroke-width="1.5"/>
<path d="M55.1875 72.148C54.4228 72.148 53.4732 72.111 52.3385 72.037C51.2038 71.963 50.1678 71.926 49.2305 71.926C48.3425 71.926 47.5038 71.9383 46.7145 71.963C45.9252 71.9877 45.2222 72 44.6055 72C44.5562 72 44.5315 71.926 44.5315 71.778C44.5315 71.63 44.5562 71.556 44.6055 71.556C45.3948 71.556 45.9992 71.4943 46.4185 71.371C46.8378 71.2477 47.1092 71.001 47.2325 70.631C47.3805 70.261 47.4545 69.7183 47.4545 69.003V51.872C47.4545 51.1567 47.3805 50.6263 47.2325 50.281C47.1092 49.911 46.8502 49.6643 46.4555 49.541C46.0608 49.393 45.4565 49.319 44.6425 49.319C44.5932 49.319 44.5685 49.245 44.5685 49.097C44.5685 48.949 44.5932 48.875 44.6425 48.875C45.2838 48.875 45.9868 48.8997 46.7515 48.949C47.5162 48.9737 48.3425 48.986 49.2305 48.986C50.0938 48.986 51.0312 48.9613 52.0425 48.912C53.0785 48.838 53.9542 48.801 54.6695 48.801C57.2595 48.801 59.5165 49.2943 61.4405 50.281C63.3645 51.2677 64.8568 52.612 65.9175 54.314C66.9782 56.016 67.5085 57.9277 67.5085 60.049C67.5085 61.899 67.1878 63.5763 66.5465 65.081C65.9052 66.561 65.0048 67.8313 63.8455 68.892C62.7108 69.928 61.3912 70.7297 59.8865 71.297C58.4065 71.8643 56.8402 72.148 55.1875 72.148ZM54.8175 71.408C56.5195 71.408 58.0242 71.001 59.3315 70.187C60.6388 69.373 61.6625 68.189 62.4025 66.635C63.1672 65.0563 63.5495 63.1323 63.5495 60.863C63.5495 58.7417 63.2042 56.83 62.5135 55.128C61.8228 53.4013 60.8362 52.0447 59.5535 51.058C58.2955 50.0467 56.7908 49.541 55.0395 49.541C53.5842 49.541 52.5358 49.6767 51.8945 49.948C51.2778 50.2193 50.9695 50.8853 50.9695 51.946V68.596C50.9695 69.558 51.2162 70.2733 51.7095 70.742C52.2028 71.186 53.2388 71.408 54.8175 71.408ZM89.9747 72C89.6047 72 88.9881 71.5313 88.1247 70.594C87.2614 69.6567 86.2131 68.3123 84.9797 66.561C83.7711 64.785 82.4144 62.676 80.9097 60.234L83.8697 59.346C85.8677 62.3307 87.5697 64.7233 88.9757 66.524C90.4064 68.3 91.6644 69.5827 92.7497 70.372C93.8597 71.1613 94.9204 71.556 95.9317 71.556C95.9811 71.556 96.0057 71.63 96.0057 71.778C96.0057 71.926 95.9811 72 95.9317 72C94.3777 72 93.1074 72 92.1207 72C91.1587 72 90.4434 72 89.9747 72ZM81.5757 48.764C83.7217 48.764 85.3744 49.1957 86.5337 50.059C87.7177 50.8977 88.3097 52.057 88.3097 53.537C88.3097 54.943 87.9027 56.201 87.0887 57.311C86.2994 58.421 85.2634 59.2843 83.9807 59.901C82.7227 60.5177 81.3661 60.826 79.9107 60.826C79.6147 60.826 79.2941 60.826 78.9487 60.826C78.6034 60.8013 78.2951 60.7767 78.0237 60.752V69.003C78.0237 69.7183 78.0854 70.261 78.2087 70.631C78.3321 71.001 78.5911 71.2477 78.9857 71.371C79.4051 71.4943 80.0094 71.556 80.7987 71.556C80.8727 71.556 80.9097 71.63 80.9097 71.778C80.9097 71.926 80.8727 72 80.7987 72C80.1821 72 79.4914 71.9877 78.7267 71.963C77.9621 71.9383 77.1234 71.926 76.2107 71.926C75.3474 71.926 74.5211 71.9383 73.7317 71.963C72.9424 71.9877 72.2394 72 71.6227 72C71.5487 72 71.5117 71.926 71.5117 71.778C71.5117 71.63 71.5487 71.556 71.6227 71.556C72.4367 71.556 73.0411 71.4943 73.4357 71.371C73.8304 71.2477 74.1017 71.001 74.2497 70.631C74.3977 70.261 74.4717 69.7183 74.4717 69.003V51.872C74.4717 51.1567 74.3977 50.6263 74.2497 50.281C74.1264 49.911 73.8674 49.6643 73.4727 49.541C73.0781 49.393 72.4737 49.319 71.6597 49.319C71.6104 49.319 71.5857 49.245 71.5857 49.097C71.5857 48.949 71.6104 48.875 71.6597 48.875C72.2764 48.875 72.9671 48.8997 73.7317 48.949C74.5211 48.9737 75.3474 48.986 76.2107 48.986C77.0001 48.986 77.8881 48.949 78.8747 48.875C79.8614 48.801 80.7617 48.764 81.5757 48.764ZM84.6467 54.832C84.6467 53.4013 84.4741 52.3037 84.1287 51.539C83.8081 50.7497 83.3517 50.207 82.7597 49.911C82.1677 49.615 81.4771 49.467 80.6877 49.467C79.7257 49.467 79.0351 49.652 78.6157 50.022C78.2211 50.3673 78.0237 51.0087 78.0237 51.946V59.753C78.3691 59.8023 78.7391 59.8393 79.1337 59.864C79.5284 59.8887 79.8737 59.901 80.1697 59.901C81.8224 59.901 82.9817 59.494 83.6477 58.68C84.3137 57.8413 84.6467 56.5587 84.6467 54.832Z" fill="#C17A5A"/>
<path d="M155.933 64.716C154.817 64.716 153.431 64.662 151.775 64.554C150.119 64.446 148.607 64.392 147.239 64.392C145.943 64.392 144.719 64.41 143.567 64.446C142.415 64.482 141.389 64.5 140.489 64.5C140.417 64.5 140.381 64.392 140.381 64.176C140.381 63.96 140.417 63.852 140.489 63.852C141.641 63.852 142.523 63.762 143.135 63.582C143.747 63.402 144.143 63.042 144.323 62.502C144.539 61.962 144.647 61.17 144.647 60.126V35.124C144.647 34.08 144.539 33.306 144.323 32.802C144.143 32.262 143.765 31.902 143.189 31.722C142.613 31.506 141.731 31.398 140.543 31.398C140.471 31.398 140.435 31.29 140.435 31.074C140.435 30.858 140.471 30.75 140.543 30.75C141.479 30.75 142.505 30.786 143.621 30.858C144.737 30.894 145.943 30.912 147.239 30.912C148.499 30.912 149.867 30.876 151.343 30.804C152.855 30.696 154.133 30.642 155.177 30.642C158.957 30.642 162.251 31.362 165.059 32.802C167.867 34.242 170.045 36.204 171.593 38.688C173.141 41.172 173.915 43.962 173.915 47.058C173.915 49.758 173.447 52.206 172.511 54.402C171.575 56.562 170.261 58.416 168.569 59.964C166.913 61.476 164.987 62.646 162.791 63.474C160.631 64.302 158.345 64.716 155.933 64.716ZM155.393 63.636C157.877 63.636 160.073 63.042 161.981 61.854C163.889 60.666 165.383 58.938 166.463 56.67C167.579 54.366 168.137 51.558 168.137 48.246C168.137 45.15 167.633 42.36 166.625 39.876C165.617 37.356 164.177 35.376 162.305 33.936C160.469 32.46 158.273 31.722 155.717 31.722C153.593 31.722 152.063 31.92 151.127 32.316C150.227 32.712 149.777 33.684 149.777 35.232V59.532C149.777 60.936 150.137 61.98 150.857 62.664C151.577 63.312 153.089 63.636 155.393 63.636ZM202.275 64.5H178.839C178.731 64.5 178.677 64.392 178.677 64.176C178.677 63.96 178.731 63.852 178.839 63.852C180.027 63.852 180.909 63.762 181.485 63.582C182.061 63.402 182.439 63.042 182.619 62.502C182.835 61.962 182.943 61.17 182.943 60.126V35.124C182.943 34.08 182.835 33.306 182.619 32.802C182.439 32.262 182.061 31.902 181.485 31.722C180.909 31.506 180.027 31.398 178.839 31.398C178.731 31.398 178.677 31.29 178.677 31.074C178.677 30.858 178.731 30.75 178.839 30.75H201.303C201.663 30.75 201.843 30.912 201.843 31.236L201.951 38.256C201.951 38.328 201.861 38.382 201.681 38.418C201.501 38.418 201.375 38.364 201.303 38.256C200.907 36.204 200.079 34.674 198.819 33.666C197.559 32.658 195.903 32.154 193.851 32.154H191.637C190.737 32.154 190.017 32.262 189.477 32.478C188.973 32.658 188.613 32.982 188.397 33.45C188.181 33.882 188.073 34.476 188.073 35.232V59.91C188.073 60.666 188.163 61.296 188.343 61.8C188.559 62.268 188.883 62.61 189.315 62.826C189.747 63.006 190.359 63.096 191.151 63.096H193.797C196.245 63.096 198.225 62.52 199.737 61.368C201.249 60.18 202.329 58.434 202.977 56.13C203.013 56.022 203.121 55.986 203.301 56.022C203.517 56.058 203.625 56.112 203.625 56.184C203.481 57.192 203.355 58.398 203.247 59.802C203.139 61.206 203.085 62.502 203.085 63.69C203.085 64.23 202.815 64.5 202.275 64.5ZM199.251 52.296C199.251 50.784 198.747 49.632 197.739 48.84C196.731 48.048 195.219 47.652 193.203 47.652H185.643V46.248H193.257C195.273 46.248 196.767 45.906 197.739 45.222C198.711 44.538 199.197 43.548 199.197 42.252C199.197 42.144 199.287 42.09 199.467 42.09C199.683 42.09 199.791 42.144 199.791 42.252C199.791 43.404 199.773 44.304 199.737 44.952C199.737 45.6 199.737 46.266 199.737 46.95C199.737 47.814 199.755 48.678 199.791 49.542C199.863 50.37 199.899 51.288 199.899 52.296C199.899 52.368 199.791 52.404 199.575 52.404C199.359 52.404 199.251 52.368 199.251 52.296ZM217.065 35.178V59.91C217.065 60.81 217.155 61.494 217.335 61.962C217.515 62.43 217.857 62.736 218.361 62.88C218.865 63.024 219.603 63.096 220.575 63.096H223.815C226.371 63.096 228.531 62.376 230.295 60.936C232.059 59.496 233.229 57.588 233.805 55.212C233.841 55.104 233.949 55.068 234.129 55.104C234.309 55.14 234.399 55.212 234.399 55.32C234.291 56.436 234.183 57.786 234.075 59.37C233.967 60.918 233.913 62.358 233.913 63.69C233.913 64.23 233.643 64.5 233.103 64.5H207.831C207.759 64.5 207.723 64.392 207.723 64.176C207.723 63.96 207.759 63.852 207.831 63.852C208.983 63.852 209.847 63.762 210.423 63.582C211.035 63.402 211.431 63.042 211.611 62.502C211.827 61.962 211.935 61.17 211.935 60.126V35.124C211.935 34.08 211.827 33.306 211.611 32.802C211.431 32.262 211.035 31.902 210.423 31.722C209.847 31.506 208.983 31.398 207.831 31.398C207.759 31.398 207.723 31.29 207.723 31.074C207.723 30.858 207.759 30.75 207.831 30.75C208.695 30.75 209.703 30.786 210.855 30.858C212.007 30.894 213.213 30.912 214.473 30.912C215.805 30.912 217.029 30.894 218.145 30.858C219.297 30.786 220.305 30.75 221.169 30.75C221.277 30.75 221.331 30.858 221.331 31.074C221.331 31.29 221.277 31.398 221.169 31.398C220.017 31.398 219.135 31.506 218.523 31.722C217.947 31.902 217.551 32.262 217.335 32.802C217.155 33.342 217.065 34.134 217.065 35.178ZM264.369 64.5C263.829 64.5 262.929 63.816 261.669 62.448C260.409 61.08 258.879 59.118 257.079 56.562C255.315 53.97 253.335 50.892 251.139 47.328L255.459 46.032C258.375 50.388 260.859 53.88 262.911 56.508C264.999 59.1 266.835 60.972 268.419 62.124C270.039 63.276 271.587 63.852 273.063 63.852C273.135 63.852 273.171 63.96 273.171 64.176C273.171 64.392 273.135 64.5 273.063 64.5C270.795 64.5 268.941 64.5 267.501 64.5C266.097 64.5 265.053 64.5 264.369 64.5ZM252.111 30.588C255.243 30.588 257.655 31.218 259.347 32.478C261.075 33.702 261.939 35.394 261.939 37.554C261.939 39.606 261.345 41.442 260.157 43.062C259.005 44.682 257.493 45.942 255.621 46.842C253.785 47.742 251.805 48.192 249.681 48.192C249.249 48.192 248.781 48.192 248.277 48.192C247.773 48.156 247.323 48.12 246.927 48.084V60.126C246.927 61.17 247.017 61.962 247.197 62.502C247.377 63.042 247.755 63.402 248.331 63.582C248.943 63.762 249.825 63.852 250.977 63.852C251.085 63.852 251.139 63.96 251.139 64.176C251.139 64.392 251.085 64.5 250.977 64.5C250.077 64.5 249.069 64.482 247.953 64.446C246.837 64.41 245.613 64.392 244.281 64.392C243.021 64.392 241.815 64.41 240.663 64.446C239.511 64.482 238.485 64.5 237.585 64.5C237.477 64.5 237.423 64.392 237.423 64.176C237.423 63.96 237.477 63.852 237.585 63.852C238.773 63.852 239.655 63.762 240.231 63.582C240.807 63.402 241.203 63.042 241.419 62.502C241.635 61.962 241.743 61.17 241.743 60.126V35.124C241.743 34.08 241.635 33.306 241.419 32.802C241.239 32.262 240.861 31.902 240.285 31.722C239.709 31.506 238.827 31.398 237.639 31.398C237.567 31.398 237.531 31.29 237.531 31.074C237.531 30.858 237.567 30.75 237.639 30.75C238.539 30.75 239.547 30.786 240.663 30.858C241.815 30.894 243.021 30.912 244.281 30.912C245.433 30.912 246.729 30.858 248.169 30.75C249.609 30.642 250.923 30.588 252.111 30.588ZM256.593 39.444C256.593 37.356 256.341 35.754 255.837 34.638C255.369 33.486 254.703 32.694 253.839 32.262C252.975 31.83 251.967 31.614 250.815 31.614C249.411 31.614 248.403 31.884 247.791 32.424C247.215 32.928 246.927 33.864 246.927 35.232V46.626C247.431 46.698 247.971 46.752 248.547 46.788C249.123 46.824 249.627 46.842 250.059 46.842C252.471 46.842 254.163 46.248 255.135 45.06C256.107 43.836 256.593 41.964 256.593 39.444ZM289.781 65.148C287.189 65.148 284.831 64.698 282.707 63.798C280.619 62.862 278.819 61.584 277.307 59.964C275.831 58.344 274.679 56.49 273.851 54.402C273.059 52.278 272.663 50.028 272.663 47.652C272.663 44.736 273.221 42.18 274.337 39.984C275.489 37.788 277.001 35.97 278.873 34.53C280.745 33.054 282.797 31.956 285.029 31.236C287.261 30.516 289.475 30.156 291.671 30.156C294.335 30.156 296.711 30.642 298.799 31.614C300.923 32.55 302.723 33.828 304.199 35.448C305.675 37.068 306.791 38.904 307.547 40.956C308.339 43.008 308.735 45.114 308.735 47.274C308.735 49.794 308.231 52.134 307.223 54.294C306.215 56.454 304.829 58.344 303.065 59.964C301.337 61.584 299.321 62.862 297.017 63.798C294.749 64.698 292.337 65.148 289.781 65.148ZM291.617 63.852C293.777 63.852 295.703 63.276 297.395 62.124C299.123 60.972 300.473 59.28 301.445 57.048C302.453 54.78 302.957 52.044 302.957 48.84C302.957 45.492 302.417 42.522 301.337 39.93C300.257 37.338 298.709 35.304 296.693 33.828C294.677 32.316 292.265 31.56 289.457 31.56C285.965 31.56 283.247 32.82 281.303 35.34C279.395 37.824 278.441 41.28 278.441 45.708C278.441 48.3 278.765 50.712 279.413 52.944C280.061 55.14 280.961 57.066 282.113 58.722C283.301 60.378 284.687 61.656 286.271 62.556C287.891 63.42 289.673 63.852 291.617 63.852ZM317.732 57.966L318.272 31.992L319.73 32.1L319.136 57.966C319.1 59.874 319.46 61.332 320.216 62.34C321.008 63.348 322.178 63.852 323.726 63.852C323.834 63.852 323.888 63.96 323.888 64.176C323.888 64.392 323.834 64.5 323.726 64.5C322.934 64.5 322.124 64.482 321.296 64.446C320.468 64.41 319.532 64.392 318.488 64.392C317.408 64.392 316.418 64.41 315.518 64.446C314.654 64.482 313.826 64.5 313.034 64.5C312.926 64.5 312.872 64.392 312.872 64.176C312.872 63.96 312.926 63.852 313.034 63.852C314.51 63.852 315.644 63.348 316.436 62.34C317.264 61.332 317.696 59.874 317.732 57.966ZM355.964 63.852C356.036 63.852 356.072 63.96 356.072 64.176C356.072 64.392 356.036 64.5 355.964 64.5C355.028 64.5 353.984 64.482 352.832 64.446C351.68 64.41 350.474 64.392 349.214 64.392C347.954 64.392 346.766 64.41 345.65 64.446C344.57 64.482 343.58 64.5 342.68 64.5C342.608 64.5 342.572 64.392 342.572 64.176C342.572 63.96 342.608 63.852 342.68 63.852C344.408 63.852 345.524 63.618 346.028 63.15C346.532 62.682 346.73 61.674 346.622 60.126L345.488 35.448L347.864 31.722L334.04 64.122C334.004 64.266 333.86 64.338 333.608 64.338C333.356 64.338 333.194 64.266 333.122 64.122L318.488 35.232C317.192 32.676 315.5 31.398 313.412 31.398C313.304 31.398 313.25 31.29 313.25 31.074C313.25 30.858 313.304 30.75 313.412 30.75C314.096 30.75 314.816 30.768 315.572 30.804C316.364 30.84 317.03 30.858 317.57 30.858C318.362 30.858 319.064 30.84 319.676 30.804C320.324 30.768 320.828 30.75 321.188 30.75C321.692 30.75 322.07 30.93 322.322 31.29C322.61 31.614 323.06 32.37 323.672 33.558L335.822 57.372L333.5 61.476L346.298 32.1C346.514 31.632 346.748 31.29 347 31.074C347.252 30.858 347.558 30.75 347.918 30.75C348.242 30.75 348.584 30.768 348.944 30.804C349.34 30.84 349.808 30.858 350.348 30.858C351.428 30.858 352.346 30.84 353.102 30.804C353.858 30.768 354.596 30.75 355.316 30.75C355.424 30.75 355.478 30.858 355.478 31.074C355.478 31.29 355.424 31.398 355.316 31.398C353.66 31.398 352.436 31.704 351.644 32.316C350.852 32.928 350.492 33.972 350.564 35.448L351.752 60.126C351.824 61.17 351.95 61.962 352.13 62.502C352.346 63.042 352.742 63.402 353.318 63.582C353.93 63.762 354.812 63.852 355.964 63.852Z" fill="#2C2520"/>
<path d="M140.921 82.9C140.921 83.8493 141.124 84.6867 141.529 85.412C141.935 86.1373 142.479 86.708 143.161 87.124C143.844 87.54 144.607 87.748 145.449 87.748C145.983 87.748 146.468 87.6893 146.905 87.572C147.343 87.4547 147.737 87.2787 148.089 87.044C148.452 86.8093 148.772 86.532 149.049 86.212V87.396C148.58 87.812 148.068 88.1267 147.513 88.34C146.959 88.5427 146.271 88.644 145.449 88.644C144.671 88.644 143.945 88.5053 143.273 88.228C142.612 87.94 142.036 87.54 141.545 87.028C141.055 86.516 140.671 85.908 140.393 85.204C140.116 84.5 139.977 83.732 139.977 82.9C139.977 82.068 140.116 81.3 140.393 80.596C140.671 79.892 141.055 79.284 141.545 78.772C142.036 78.26 142.612 77.8653 143.273 77.588C143.945 77.3 144.671 77.156 145.449 77.156C146.271 77.156 146.959 77.2627 147.513 77.476C148.068 77.6787 148.58 77.988 149.049 78.404V79.572C148.772 79.252 148.452 78.98 148.089 78.756C147.727 78.5213 147.327 78.3453 146.889 78.228C146.452 78.1107 145.972 78.052 145.449 78.052C144.607 78.052 143.844 78.26 143.161 78.676C142.479 79.0813 141.935 79.6467 141.529 80.372C141.124 81.0973 140.921 81.94 140.921 82.9ZM151.491 77.3H152.371V84.884C152.371 85.78 152.605 86.4947 153.075 87.028C153.544 87.5613 154.211 87.828 155.075 87.828C155.939 87.828 156.605 87.5613 157.075 87.028C157.544 86.4947 157.779 85.78 157.779 84.884V77.3H158.659V84.884C158.659 85.4387 158.579 85.9507 158.419 86.42C158.259 86.8787 158.024 87.2733 157.715 87.604C157.405 87.9347 157.027 88.196 156.579 88.388C156.141 88.5693 155.64 88.66 155.075 88.66C154.509 88.66 154.003 88.5693 153.555 88.388C153.117 88.196 152.744 87.9347 152.435 87.604C152.125 87.2733 151.891 86.8787 151.731 86.42C151.571 85.9507 151.491 85.4387 151.491 84.884V77.3ZM163.178 83.156H164.154L167.978 88.5H166.89L163.178 83.156ZM161.274 77.3H162.154V88.5H161.274V77.3ZM161.738 78.084V77.3H163.834C164.559 77.3 165.204 77.428 165.77 77.684C166.346 77.94 166.799 78.308 167.13 78.788C167.46 79.268 167.626 79.8547 167.626 80.548C167.626 81.2307 167.46 81.8173 167.13 82.308C166.799 82.7987 166.346 83.172 165.77 83.428C165.204 83.6733 164.559 83.796 163.834 83.796H161.738V83.012H163.834C164.399 83.012 164.9 82.9213 165.338 82.74C165.786 82.548 166.132 82.2707 166.378 81.908C166.623 81.5347 166.746 81.0813 166.746 80.548C166.746 80.0147 166.618 79.5667 166.362 79.204C166.116 78.8413 165.775 78.564 165.338 78.372C164.9 78.18 164.399 78.084 163.834 78.084H161.738ZM170.545 84.74L170.833 83.908H176.001L176.289 84.74H170.545ZM173.393 78.9L171.217 84.196L171.121 84.388L169.441 88.5H168.449L173.393 76.868L178.337 88.5H177.345L175.681 84.452L175.601 84.244L173.393 78.9ZM177.576 78.132V77.3H184.344V78.132H181.4V88.5H180.52V78.132H177.576ZM186.378 88.5V87.668H191.93V88.5H186.378ZM186.378 78.132V77.3H191.93V78.132H186.378ZM186.378 82.772V81.94H191.61V82.772H186.378ZM185.914 77.3H186.794V88.5H185.914V77.3ZM194.461 77.3H195.341V88.5H194.461V77.3ZM197.501 88.5H194.941V87.62H197.501C198.195 87.62 198.824 87.508 199.389 87.284C199.965 87.06 200.456 86.7453 200.861 86.34C201.267 85.924 201.576 85.428 201.789 84.852C202.013 84.2653 202.125 83.6147 202.125 82.9C202.125 82.1853 202.013 81.54 201.789 80.964C201.576 80.3773 201.267 79.8813 200.861 79.476C200.456 79.06 199.965 78.74 199.389 78.516C198.824 78.292 198.195 78.18 197.501 78.18H194.941V77.3H197.501C198.589 77.3 199.544 77.5347 200.365 78.004C201.197 78.4733 201.843 79.1293 202.301 79.972C202.771 80.804 203.005 81.78 203.005 82.9C203.005 84.02 202.771 85.0013 202.301 85.844C201.843 86.676 201.197 87.3267 200.365 87.796C199.544 88.2653 198.589 88.5 197.501 88.5ZM209.932 85.268C210.113 85.7373 210.332 86.164 210.588 86.548C210.854 86.932 211.18 87.2413 211.564 87.476C211.948 87.7 212.406 87.812 212.94 87.812C213.665 87.812 214.23 87.6147 214.636 87.22C215.052 86.8147 215.26 86.3027 215.26 85.684C215.26 85.14 215.137 84.7027 214.892 84.372C214.646 84.0413 214.326 83.7747 213.932 83.572C213.548 83.3587 213.142 83.172 212.716 83.012C212.396 82.8947 212.06 82.756 211.708 82.596C211.366 82.4253 211.046 82.2227 210.748 81.988C210.449 81.7427 210.204 81.4493 210.012 81.108C209.83 80.7667 209.74 80.356 209.74 79.876C209.74 79.3427 209.868 78.8733 210.124 78.468C210.38 78.052 210.737 77.732 211.196 77.508C211.654 77.2733 212.172 77.156 212.748 77.156C213.345 77.156 213.857 77.268 214.284 77.492C214.721 77.716 215.084 77.9987 215.372 78.34C215.66 78.6813 215.878 79.0333 216.028 79.396L215.26 79.828C215.142 79.54 214.972 79.2573 214.748 78.98C214.534 78.7027 214.262 78.4733 213.932 78.292C213.601 78.1 213.19 78.004 212.7 78.004C212.049 78.004 211.548 78.1747 211.196 78.516C210.844 78.8467 210.668 79.2627 210.668 79.764C210.668 80.18 210.769 80.5373 210.972 80.836C211.174 81.1347 211.478 81.4067 211.884 81.652C212.289 81.8867 212.79 82.1107 213.388 82.324C213.697 82.4413 214.017 82.5853 214.348 82.756C214.678 82.9267 214.977 83.14 215.244 83.396C215.521 83.652 215.745 83.9613 215.916 84.324C216.086 84.676 216.172 85.0973 216.172 85.588C216.172 86.0467 216.086 86.4627 215.916 86.836C215.756 87.2093 215.526 87.5347 215.228 87.812C214.94 88.0787 214.598 88.2867 214.204 88.436C213.809 88.5747 213.382 88.644 212.924 88.644C212.273 88.644 211.702 88.5107 211.212 88.244C210.721 87.9773 210.31 87.62 209.98 87.172C209.649 86.724 209.393 86.2387 209.212 85.716L209.932 85.268ZM217.122 78.132V77.3H223.89V78.132H220.946V88.5H220.066V78.132H217.122ZM224.763 84.74L225.051 83.908H230.219L230.507 84.74H224.763ZM227.611 78.9L225.435 84.196L225.339 84.388L223.659 88.5H222.667L227.611 76.868L232.555 88.5H231.563L229.899 84.452L229.819 84.244L227.611 78.9ZM239.058 77.3H240.05L236.29 83.892V88.5H235.41V83.908L231.714 77.3H232.706L235.842 83.092L239.058 77.3ZM241.619 85.268C241.801 85.7373 242.019 86.164 242.275 86.548C242.542 86.932 242.867 87.2413 243.251 87.476C243.635 87.7 244.094 87.812 244.627 87.812C245.353 87.812 245.918 87.6147 246.323 87.22C246.739 86.8147 246.947 86.3027 246.947 85.684C246.947 85.14 246.825 84.7027 246.579 84.372C246.334 84.0413 246.014 83.7747 245.619 83.572C245.235 83.3587 244.83 83.172 244.403 83.012C244.083 82.8947 243.747 82.756 243.395 82.596C243.054 82.4253 242.734 82.2227 242.435 81.988C242.137 81.7427 241.891 81.4493 241.699 81.108C241.518 80.7667 241.427 80.356 241.427 79.876C241.427 79.3427 241.555 78.8733 241.811 78.468C242.067 78.052 242.425 77.732 242.883 77.508C243.342 77.2733 243.859 77.156 244.435 77.156C245.033 77.156 245.545 77.268 245.971 77.492C246.409 77.716 246.771 77.9987 247.059 78.34C247.347 78.6813 247.566 79.0333 247.715 79.396L246.947 79.828C246.83 79.54 246.659 79.2573 246.435 78.98C246.222 78.7027 245.95 78.4733 245.619 78.292C245.289 78.1 244.878 78.004 244.387 78.004C243.737 78.004 243.235 78.1747 242.883 78.516C242.531 78.8467 242.355 79.2627 242.355 79.764C242.355 80.18 242.457 80.5373 242.659 80.836C242.862 81.1347 243.166 81.4067 243.571 81.652C243.977 81.8867 244.478 82.1107 245.075 82.324C245.385 82.4413 245.705 82.5853 246.035 82.756C246.366 82.9267 246.665 83.14 246.931 83.396C247.209 83.652 247.433 83.9613 247.603 84.324C247.774 84.676 247.859 85.0973 247.859 85.588C247.859 86.0467 247.774 86.4627 247.603 86.836C247.443 87.2093 247.214 87.5347 246.915 87.812C246.627 88.0787 246.286 88.2867 245.891 88.436C245.497 88.5747 245.07 88.644 244.611 88.644C243.961 88.644 243.39 88.5107 242.899 88.244C242.409 87.9773 241.998 87.62 241.667 87.172C241.337 86.724 241.081 86.2387 240.899 85.716L241.619 85.268ZM254.999 84.788C254.999 84.6173 255.057 84.4733 255.175 84.356C255.303 84.2387 255.447 84.18 255.607 84.18C255.767 84.18 255.905 84.2387 256.023 84.356C256.14 84.4733 256.199 84.6173 256.199 84.788C256.199 84.948 256.14 85.0867 256.023 85.204C255.905 85.3213 255.767 85.38 255.607 85.38C255.447 85.38 255.303 85.3213 255.175 85.204C255.057 85.0867 254.999 84.948 254.999 84.788ZM263.961 77.3H264.841V88.5H263.961V77.3ZM264.457 78.132V77.3H266.585C267.289 77.3 267.913 77.4333 268.457 77.7C269.012 77.9667 269.449 78.3453 269.769 78.836C270.089 79.3267 270.249 79.9187 270.249 80.612C270.249 81.2947 270.089 81.8867 269.769 82.388C269.449 82.8893 269.012 83.2733 268.457 83.54C267.913 83.796 267.289 83.924 266.585 83.924H264.457V83.092H266.585C267.407 83.092 268.073 82.8787 268.585 82.452C269.097 82.0253 269.353 81.412 269.353 80.612C269.353 79.8013 269.097 79.188 268.585 78.772C268.073 78.3453 267.407 78.132 266.585 78.132H264.457ZM272.225 77.3H273.105V84.884C273.105 85.78 273.34 86.4947 273.809 87.028C274.278 87.5613 274.945 87.828 275.809 87.828C276.673 87.828 277.34 87.5613 277.809 87.028C278.278 86.4947 278.513 85.78 278.513 84.884V77.3H279.393V84.884C279.393 85.4387 279.313 85.9507 279.153 86.42C278.993 86.8787 278.758 87.2733 278.449 87.604C278.14 87.9347 277.761 88.196 277.313 88.388C276.876 88.5693 276.374 88.66 275.809 88.66C275.244 88.66 274.737 88.5693 274.289 88.388C273.852 88.196 273.478 87.9347 273.169 87.604C272.86 87.2733 272.625 86.8787 272.465 86.42C272.305 85.9507 272.225 85.4387 272.225 84.884V77.3ZM282.472 88.5V87.668H288.024V88.5H282.472ZM282.472 78.132V77.3H288.024V78.132H282.472ZM282.472 82.772V81.94H287.704V82.772H282.472ZM282.008 77.3H282.888V88.5H282.008V77.3ZM292.459 83.156H293.435L297.259 88.5H296.171L292.459 83.156ZM290.555 77.3H291.435V88.5H290.555V77.3ZM291.019 78.084V77.3H293.115C293.84 77.3 294.486 77.428 295.051 77.684C295.627 77.94 296.08 78.308 296.411 78.788C296.742 79.268 296.907 79.8547 296.907 80.548C296.907 81.2307 296.742 81.8173 296.411 82.308C296.08 82.7987 295.627 83.172 295.051 83.428C294.486 83.6733 293.84 83.796 293.115 83.796H291.019V83.012H293.115C293.68 83.012 294.182 82.9213 294.619 82.74C295.067 82.548 295.414 82.2707 295.659 81.908C295.904 81.5347 296.027 81.0813 296.027 80.548C296.027 80.0147 295.899 79.5667 295.643 79.204C295.398 78.8413 295.056 78.564 294.619 78.372C294.182 78.18 293.68 78.084 293.115 78.084H291.019ZM297.81 78.132V77.3H304.578V78.132H301.634V88.5H300.754V78.132H297.81ZM305.64 82.9C305.64 83.828 305.837 84.66 306.232 85.396C306.637 86.132 307.186 86.7133 307.88 87.14C308.584 87.556 309.384 87.764 310.28 87.764C311.176 87.764 311.97 87.556 312.664 87.14C313.368 86.7133 313.917 86.132 314.312 85.396C314.706 84.66 314.904 83.828 314.904 82.9C314.904 81.9613 314.706 81.1293 314.312 80.404C313.917 79.668 313.368 79.092 312.664 78.676C311.97 78.2493 311.176 78.036 310.28 78.036C309.384 78.036 308.584 78.2493 307.88 78.676C307.186 79.092 306.637 79.668 306.232 80.404C305.837 81.1293 305.64 81.9613 305.64 82.9ZM304.712 82.9C304.712 82.0787 304.85 81.3213 305.128 80.628C305.405 79.924 305.794 79.316 306.296 78.804C306.797 78.2813 307.384 77.876 308.056 77.588C308.738 77.3 309.48 77.156 310.28 77.156C311.08 77.156 311.816 77.3 312.488 77.588C313.17 77.876 313.762 78.2813 314.264 78.804C314.765 79.316 315.154 79.924 315.432 80.628C315.709 81.3213 315.848 82.0787 315.848 82.9C315.848 83.7213 315.709 84.484 315.432 85.188C315.154 85.8813 314.765 86.4893 314.264 87.012C313.762 87.524 313.17 87.924 312.488 88.212C311.816 88.5 311.08 88.644 310.28 88.644C309.48 88.644 308.738 88.5 308.056 88.212C307.384 87.924 306.797 87.524 306.296 87.012C305.794 86.4893 305.405 85.8813 305.128 85.188C304.85 84.484 304.712 83.7213 304.712 82.9ZM324.6 83.156H325.576L329.4 88.5H328.312L324.6 83.156ZM322.696 77.3H323.576V88.5H322.696V77.3ZM323.16 78.084V77.3H325.256C325.981 77.3 326.626 77.428 327.192 77.684C327.768 77.94 328.221 78.308 328.552 78.788C328.882 79.268 329.048 79.8547 329.048 80.548C329.048 81.2307 328.882 81.8173 328.552 82.308C328.221 82.7987 327.768 83.172 327.192 83.428C326.626 83.6733 325.981 83.796 325.256 83.796H323.16V83.012H325.256C325.821 83.012 326.322 82.9213 326.76 82.74C327.208 82.548 327.554 82.2707 327.8 81.908C328.045 81.5347 328.168 81.0813 328.168 80.548C328.168 80.0147 328.04 79.5667 327.784 79.204C327.538 78.8413 327.197 78.564 326.76 78.372C326.322 78.18 325.821 78.084 325.256 78.084H323.16ZM331.039 77.3H331.919V88.5H331.039V77.3ZM334.875 82.9C334.875 83.8493 335.077 84.6867 335.483 85.412C335.888 86.1373 336.432 86.708 337.115 87.124C337.797 87.54 338.56 87.748 339.403 87.748C339.936 87.748 340.421 87.6893 340.859 87.572C341.296 87.4547 341.691 87.2787 342.043 87.044C342.405 86.8093 342.725 86.532 343.003 86.212V87.396C342.533 87.812 342.021 88.1267 341.467 88.34C340.912 88.5427 340.224 88.644 339.403 88.644C338.624 88.644 337.899 88.5053 337.227 88.228C336.565 87.94 335.989 87.54 335.499 87.028C335.008 86.516 334.624 85.908 334.347 85.204C334.069 84.5 333.931 83.732 333.931 82.9C333.931 82.068 334.069 81.3 334.347 80.596C334.624 79.892 335.008 79.284 335.499 78.772C335.989 78.26 336.565 77.8653 337.227 77.588C337.899 77.3 338.624 77.156 339.403 77.156C340.224 77.156 340.912 77.2627 341.467 77.476C342.021 77.6787 342.533 77.988 343.003 78.404V79.572C342.725 79.252 342.405 78.98 342.043 78.756C341.68 78.5213 341.28 78.3453 340.843 78.228C340.405 78.1107 339.925 78.052 339.403 78.052C338.56 78.052 337.797 78.26 337.115 78.676C336.432 79.0813 335.888 79.6467 335.483 80.372C335.077 81.0973 334.875 81.94 334.875 82.9ZM345.812 82.9C345.812 83.828 346.009 84.66 346.404 85.396C346.809 86.132 347.358 86.7133 348.052 87.14C348.756 87.556 349.556 87.764 350.452 87.764C351.348 87.764 352.142 87.556 352.836 87.14C353.54 86.7133 354.089 86.132 354.484 85.396C354.878 84.66 355.076 83.828 355.076 82.9C355.076 81.9613 354.878 81.1293 354.484 80.404C354.089 79.668 353.54 79.092 352.836 78.676C352.142 78.2493 351.348 78.036 350.452 78.036C349.556 78.036 348.756 78.2493 348.052 78.676C347.358 79.092 346.809 79.668 346.404 80.404C346.009 81.1293 345.812 81.9613 345.812 82.9ZM344.884 82.9C344.884 82.0787 345.022 81.3213 345.3 80.628C345.577 79.924 345.966 79.316 346.468 78.804C346.969 78.2813 347.556 77.876 348.228 77.588C348.91 77.3 349.652 77.156 350.452 77.156C351.252 77.156 351.988 77.3 352.66 77.588C353.342 77.876 353.934 78.2813 354.436 78.804C354.937 79.316 355.326 79.924 355.604 80.628C355.881 81.3213 356.02 82.0787 356.02 82.9C356.02 83.7213 355.881 84.484 355.604 85.188C355.326 85.8813 354.937 86.4893 354.436 87.012C353.934 87.524 353.342 87.924 352.66 88.212C351.988 88.5 351.252 88.644 350.452 88.644C349.652 88.644 348.91 88.5 348.228 88.212C347.556 87.924 346.969 87.524 346.468 87.012C345.966 86.4893 345.577 85.8813 345.3 85.188C345.022 84.484 344.884 83.7213 344.884 82.9Z" fill="#C17A5A"/>
</svg>
