<svg width="375" height="120" viewBox="0 0 375 120" fill="none" xmlns="http://www.w3.org/2000/svg">
<rect x="17" y="8" width="104" height="104" rx="52" stroke="#C4B5A0" stroke-width="3"/>
<circle cx="69" cy="60" r="44" stroke="#C4B5A0" stroke-opacity="0.5" stroke-width="1.5"/>
<path d="M55.1875 72.148C54.4228 72.148 53.4732 72.111 52.3385 72.037C51.2038 71.963 50.1678 71.926 49.2305 71.926C48.3425 71.926 47.5038 71.9383 46.7145 71.963C45.9252 71.9877 45.2222 72 44.6055 72C44.5562 72 44.5315 71.926 44.5315 71.778C44.5315 71.63 44.5562 71.556 44.6055 71.556C45.3948 71.556 45.9992 71.4943 46.4185 71.371C46.8378 71.2477 47.1092 71.001 47.2325 70.631C47.3805 70.261 47.4545 69.7183 47.4545 69.003V51.872C47.4545 51.1567 47.3805 50.6263 47.2325 50.281C47.1092 49.911 46.8502 49.6643 46.4555 49.541C46.0608 49.393 45.4565 49.319 44.6425 49.319C44.5932 49.319 44.5685 49.245 44.5685 49.097C44.5685 48.949 44.5932 48.875 44.6425 48.875C45.2838 48.875 45.9868 48.8997 46.7515 48.949C47.5162 48.9737 48.3425 48.986 49.2305 48.986C50.0938 48.986 51.0312 48.9613 52.0425 48.912C53.0785 48.838 53.9542 48.801 54.6695 48.801C57.2595 48.801 59.5165 49.2943 61.4405 50.281C63.3645 51.2677 64.8568 52.612 65.9175 54.314C66.9782 56.016 67.5085 57.9277 67.5085 60.049C67.5085 61.899 67.1878 63.5763 66.5465 65.081C65.9052 66.561 65.0048 67.8313 63.8455 68.892C62.7108 69.928 61.3912 70.7297 59.8865 71.297C58.4065 71.8643 56.8402 72.148 55.1875 72.148ZM54.8175 71.408C56.5195 71.408 58.0242 71.001 59.3315 70.187C60.6388 69.373 61.6625 68.189 62.4025 66.635C63.1672 65.0563 63.5495 63.1323 63.5495 60.863C63.5495 58.7417 63.2042 56.83 62.5135 55.128C61.8228 53.4013 60.8362 52.0447 59.5535 51.058C58.2955 50.0467 56.7908 49.541 55.0395 49.541C53.5842 49.541 52.5358 49.6767 51.8945 49.948C51.2778 50.2193 50.9695 50.8853 50.9695 51.946V68.596C50.9695 69.558 51.2162 70.2733 51.7095 70.742C52.2028 71.186 53.2388 71.408 54.8175 71.408ZM89.9747 72C89.6047 72 88.9881 71.5313 88.1247 70.594C87.2614 69.6567 86.2131 68.3123 84.9797 66.561C83.7711 64.785 82.4144 62.676 80.9097 60.234L83.8697 59.346C85.8677 62.3307 87.5697 64.7233 88.9757 66.524C90.4064 68.3 91.6644 69.5827 92.7497 70.372C93.8597 71.1613 94.9204 71.556 95.9317 71.556C95.9811 71.556 96.0057 71.63 96.0057 71.778C96.0057 71.926 95.9811 72 95.9317 72C94.3777 72 93.1074 72 92.1207 72C91.1587 72 90.4434 72 89.9747 72ZM81.5757 48.764C83.7217 48.764 85.3744 49.1957 86.5337 50.059C87.7177 50.8977 88.3097 52.057 88.3097 53.537C88.3097 54.943 87.9027 56.201 87.0887 57.311C86.2994 58.421 85.2634 59.2843 83.9807 59.901C82.7227 60.5177 81.3661 60.826 79.9107 60.826C79.6147 60.826 79.2941 60.826 78.9487 60.826C78.6034 60.8013 78.2951 60.7767 78.0237 60.752V69.003C78.0237 69.7183 78.0854 70.261 78.2087 70.631C78.3321 71.001 78.5911 71.2477 78.9857 71.371C79.4051 71.4943 80.0094 71.556 80.7987 71.556C80.8727 71.556 80.9097 71.63 80.9097 71.778C80.9097 71.926 80.8727 72 80.7987 72C80.1821 72 79.4914 71.9877 78.7267 71.963C77.9621 71.9383 77.1234 71.926 76.2107 71.926C75.3474 71.926 74.5211 71.9383 73.7317 71.963C72.9424 71.9877 72.2394 72 71.6227 72C71.5487 72 71.5117 71.926 71.5117 71.778C71.5117 71.63 71.5487 71.556 71.6227 71.556C72.4367 71.556 73.0411 71.4943 73.4357 71.371C73.8304 71.2477 74.1017 71.001 74.2497 70.631C74.3977 70.261 74.4717 69.7183 74.4717 69.003V51.872C74.4717 51.1567 74.3977 50.6263 74.2497 50.281C74.1264 49.911 73.8674 49.6643 73.4727 49.541C73.0781 49.393 72.4737 49.319 71.6597 49.319C71.6104 49.319 71.5857 49.245 71.5857 49.097C71.5857 48.949 71.6104 48.875 71.6597 48.875C72.2764 48.875 72.9671 48.8997 73.7317 48.949C74.5211 48.9737 75.3474 48.986 76.2107 48.986C77.0001 48.986 77.8881 48.949 78.8747 48.875C79.8614 48.801 80.7617 48.764 81.5757 48.764ZM84.6467 54.832C84.6467 53.4013 84.4741 52.3037 84.1287 51.539C83.8081 50.7497 83.3517 50.207 82.7597 49.911C82.1677 49.615 81.4771 49.467 80.6877 49.467C79.7257 49.467 79.0351 49.652 78.6157 50.022C78.2211 50.3673 78.0237 51.0087 78.0237 51.946V59.753C78.3691 59.8023 78.7391 59.8393 79.1337 59.864C79.5284 59.8887 79.8737 59.901 80.1697 59.901C81.8224 59.901 82.9817 59.494 83.6477 58.68C84.3137 57.8413 84.6467 56.5587 84.6467 54.832Z" fill="#C17A5A"/>
<path d="M155.933 77.716C154.817 77.716 153.431 77.662 151.775 77.554C150.119 77.446 148.607 77.392 147.239 77.392C145.943 77.392 144.719 77.41 143.567 77.446C142.415 77.482 141.389 77.5 140.489 77.5C140.417 77.5 140.381 77.392 140.381 77.176C140.381 76.96 140.417 76.852 140.489 76.852C141.641 76.852 142.523 76.762 143.135 76.582C143.747 76.402 144.143 76.042 144.323 75.502C144.539 74.962 144.647 74.17 144.647 73.126V48.124C144.647 47.08 144.539 46.306 144.323 45.802C144.143 45.262 143.765 44.902 143.189 44.722C142.613 44.506 141.731 44.398 140.543 44.398C140.471 44.398 140.435 44.29 140.435 44.074C140.435 43.858 140.471 43.75 140.543 43.75C141.479 43.75 142.505 43.786 143.621 43.858C144.737 43.894 145.943 43.912 147.239 43.912C148.499 43.912 149.867 43.876 151.343 43.804C152.855 43.696 154.133 43.642 155.177 43.642C158.957 43.642 162.251 44.362 165.059 45.802C167.867 47.242 170.045 49.204 171.593 51.688C173.141 54.172 173.915 56.962 173.915 60.058C173.915 62.758 173.447 65.206 172.511 67.402C171.575 69.562 170.261 71.416 168.569 72.964C166.913 74.476 164.987 75.646 162.791 76.474C160.631 77.302 158.345 77.716 155.933 77.716ZM155.393 76.636C157.877 76.636 160.073 76.042 161.981 74.854C163.889 73.666 165.383 71.938 166.463 69.67C167.579 67.366 168.137 64.558 168.137 61.246C168.137 58.15 167.633 55.36 166.625 52.876C165.617 50.356 164.177 48.376 162.305 46.936C160.469 45.46 158.273 44.722 155.717 44.722C153.593 44.722 152.063 44.92 151.127 45.316C150.227 45.712 149.777 46.684 149.777 48.232V72.532C149.777 73.936 150.137 74.98 150.857 75.664C151.577 76.312 153.089 76.636 155.393 76.636ZM202.275 77.5H178.839C178.731 77.5 178.677 77.392 178.677 77.176C178.677 76.96 178.731 76.852 178.839 76.852C180.027 76.852 180.909 76.762 181.485 76.582C182.061 76.402 182.439 76.042 182.619 75.502C182.835 74.962 182.943 74.17 182.943 73.126V48.124C182.943 47.08 182.835 46.306 182.619 45.802C182.439 45.262 182.061 44.902 181.485 44.722C180.909 44.506 180.027 44.398 178.839 44.398C178.731 44.398 178.677 44.29 178.677 44.074C178.677 43.858 178.731 43.75 178.839 43.75H201.303C201.663 43.75 201.843 43.912 201.843 44.236L201.951 51.256C201.951 51.328 201.861 51.382 201.681 51.418C201.501 51.418 201.375 51.364 201.303 51.256C200.907 49.204 200.079 47.674 198.819 46.666C197.559 45.658 195.903 45.154 193.851 45.154H191.637C190.737 45.154 190.017 45.262 189.477 45.478C188.973 45.658 188.613 45.982 188.397 46.45C188.181 46.882 188.073 47.476 188.073 48.232V72.91C188.073 73.666 188.163 74.296 188.343 74.8C188.559 75.268 188.883 75.61 189.315 75.826C189.747 76.006 190.359 76.096 191.151 76.096H193.797C196.245 76.096 198.225 75.52 199.737 74.368C201.249 73.18 202.329 71.434 202.977 69.13C203.013 69.022 203.121 68.986 203.301 69.022C203.517 69.058 203.625 69.112 203.625 69.184C203.481 70.192 203.355 71.398 203.247 72.802C203.139 74.206 203.085 75.502 203.085 76.69C203.085 77.23 202.815 77.5 202.275 77.5ZM199.251 65.296C199.251 63.784 198.747 62.632 197.739 61.84C196.731 61.048 195.219 60.652 193.203 60.652H185.643V59.248H193.257C195.273 59.248 196.767 58.906 197.739 58.222C198.711 57.538 199.197 56.548 199.197 55.252C199.197 55.144 199.287 55.09 199.467 55.09C199.683 55.09 199.791 55.144 199.791 55.252C199.791 56.404 199.773 57.304 199.737 57.952C199.737 58.6 199.737 59.266 199.737 59.95C199.737 60.814 199.755 61.678 199.791 62.542C199.863 63.37 199.899 64.288 199.899 65.296C199.899 65.368 199.791 65.404 199.575 65.404C199.359 65.404 199.251 65.368 199.251 65.296ZM217.065 48.178V72.91C217.065 73.81 217.155 74.494 217.335 74.962C217.515 75.43 217.857 75.736 218.361 75.88C218.865 76.024 219.603 76.096 220.575 76.096H223.815C226.371 76.096 228.531 75.376 230.295 73.936C232.059 72.496 233.229 70.588 233.805 68.212C233.841 68.104 233.949 68.068 234.129 68.104C234.309 68.14 234.399 68.212 234.399 68.32C234.291 69.436 234.183 70.786 234.075 72.37C233.967 73.918 233.913 75.358 233.913 76.69C233.913 77.23 233.643 77.5 233.103 77.5H207.831C207.759 77.5 207.723 77.392 207.723 77.176C207.723 76.96 207.759 76.852 207.831 76.852C208.983 76.852 209.847 76.762 210.423 76.582C211.035 76.402 211.431 76.042 211.611 75.502C211.827 74.962 211.935 74.17 211.935 73.126V48.124C211.935 47.08 211.827 46.306 211.611 45.802C211.431 45.262 211.035 44.902 210.423 44.722C209.847 44.506 208.983 44.398 207.831 44.398C207.759 44.398 207.723 44.29 207.723 44.074C207.723 43.858 207.759 43.75 207.831 43.75C208.695 43.75 209.703 43.786 210.855 43.858C212.007 43.894 213.213 43.912 214.473 43.912C215.805 43.912 217.029 43.894 218.145 43.858C219.297 43.786 220.305 43.75 221.169 43.75C221.277 43.75 221.331 43.858 221.331 44.074C221.331 44.29 221.277 44.398 221.169 44.398C220.017 44.398 219.135 44.506 218.523 44.722C217.947 44.902 217.551 45.262 217.335 45.802C217.155 46.342 217.065 47.134 217.065 48.178ZM264.369 77.5C263.829 77.5 262.929 76.816 261.669 75.448C260.409 74.08 258.879 72.118 257.079 69.562C255.315 66.97 253.335 63.892 251.139 60.328L255.459 59.032C258.375 63.388 260.859 66.88 262.911 69.508C264.999 72.1 266.835 73.972 268.419 75.124C270.039 76.276 271.587 76.852 273.063 76.852C273.135 76.852 273.171 76.96 273.171 77.176C273.171 77.392 273.135 77.5 273.063 77.5C270.795 77.5 268.941 77.5 267.501 77.5C266.097 77.5 265.053 77.5 264.369 77.5ZM252.111 43.588C255.243 43.588 257.655 44.218 259.347 45.478C261.075 46.702 261.939 48.394 261.939 50.554C261.939 52.606 261.345 54.442 260.157 56.062C259.005 57.682 257.493 58.942 255.621 59.842C253.785 60.742 251.805 61.192 249.681 61.192C249.249 61.192 248.781 61.192 248.277 61.192C247.773 61.156 247.323 61.12 246.927 61.084V73.126C246.927 74.17 247.017 74.962 247.197 75.502C247.377 76.042 247.755 76.402 248.331 76.582C248.943 76.762 249.825 76.852 250.977 76.852C251.085 76.852 251.139 76.96 251.139 77.176C251.139 77.392 251.085 77.5 250.977 77.5C250.077 77.5 249.069 77.482 247.953 77.446C246.837 77.41 245.613 77.392 244.281 77.392C243.021 77.392 241.815 77.41 240.663 77.446C239.511 77.482 238.485 77.5 237.585 77.5C237.477 77.5 237.423 77.392 237.423 77.176C237.423 76.96 237.477 76.852 237.585 76.852C238.773 76.852 239.655 76.762 240.231 76.582C240.807 76.402 241.203 76.042 241.419 75.502C241.635 74.962 241.743 74.17 241.743 73.126V48.124C241.743 47.08 241.635 46.306 241.419 45.802C241.239 45.262 240.861 44.902 240.285 44.722C239.709 44.506 238.827 44.398 237.639 44.398C237.567 44.398 237.531 44.29 237.531 44.074C237.531 43.858 237.567 43.75 237.639 43.75C238.539 43.75 239.547 43.786 240.663 43.858C241.815 43.894 243.021 43.912 244.281 43.912C245.433 43.912 246.729 43.858 248.169 43.75C249.609 43.642 250.923 43.588 252.111 43.588ZM256.593 52.444C256.593 50.356 256.341 48.754 255.837 47.638C255.369 46.486 254.703 45.694 253.839 45.262C252.975 44.83 251.967 44.614 250.815 44.614C249.411 44.614 248.403 44.884 247.791 45.424C247.215 45.928 246.927 46.864 246.927 48.232V59.626C247.431 59.698 247.971 59.752 248.547 59.788C249.123 59.824 249.627 59.842 250.059 59.842C252.471 59.842 254.163 59.248 255.135 58.06C256.107 56.836 256.593 54.964 256.593 52.444ZM289.781 78.148C287.189 78.148 284.831 77.698 282.707 76.798C280.619 75.862 278.819 74.584 277.307 72.964C275.831 71.344 274.679 69.49 273.851 67.402C273.059 65.278 272.663 63.028 272.663 60.652C272.663 57.736 273.221 55.18 274.337 52.984C275.489 50.788 277.001 48.97 278.873 47.53C280.745 46.054 282.797 44.956 285.029 44.236C287.261 43.516 289.475 43.156 291.671 43.156C294.335 43.156 296.711 43.642 298.799 44.614C300.923 45.55 302.723 46.828 304.199 48.448C305.675 50.068 306.791 51.904 307.547 53.956C308.339 56.008 308.735 58.114 308.735 60.274C308.735 62.794 308.231 65.134 307.223 67.294C306.215 69.454 304.829 71.344 303.065 72.964C301.337 74.584 299.321 75.862 297.017 76.798C294.749 77.698 292.337 78.148 289.781 78.148ZM291.617 76.852C293.777 76.852 295.703 76.276 297.395 75.124C299.123 73.972 300.473 72.28 301.445 70.048C302.453 67.78 302.957 65.044 302.957 61.84C302.957 58.492 302.417 55.522 301.337 52.93C300.257 50.338 298.709 48.304 296.693 46.828C294.677 45.316 292.265 44.56 289.457 44.56C285.965 44.56 283.247 45.82 281.303 48.34C279.395 50.824 278.441 54.28 278.441 58.708C278.441 61.3 278.765 63.712 279.413 65.944C280.061 68.14 280.961 70.066 282.113 71.722C283.301 73.378 284.687 74.656 286.271 75.556C287.891 76.42 289.673 76.852 291.617 76.852ZM317.732 70.966L318.272 44.992L319.73 45.1L319.136 70.966C319.1 72.874 319.46 74.332 320.216 75.34C321.008 76.348 322.178 76.852 323.726 76.852C323.834 76.852 323.888 76.96 323.888 77.176C323.888 77.392 323.834 77.5 323.726 77.5C322.934 77.5 322.124 77.482 321.296 77.446C320.468 77.41 319.532 77.392 318.488 77.392C317.408 77.392 316.418 77.41 315.518 77.446C314.654 77.482 313.826 77.5 313.034 77.5C312.926 77.5 312.872 77.392 312.872 77.176C312.872 76.96 312.926 76.852 313.034 76.852C314.51 76.852 315.644 76.348 316.436 75.34C317.264 74.332 317.696 72.874 317.732 70.966ZM355.964 76.852C356.036 76.852 356.072 76.96 356.072 77.176C356.072 77.392 356.036 77.5 355.964 77.5C355.028 77.5 353.984 77.482 352.832 77.446C351.68 77.41 350.474 77.392 349.214 77.392C347.954 77.392 346.766 77.41 345.65 77.446C344.57 77.482 343.58 77.5 342.68 77.5C342.608 77.5 342.572 77.392 342.572 77.176C342.572 76.96 342.608 76.852 342.68 76.852C344.408 76.852 345.524 76.618 346.028 76.15C346.532 75.682 346.73 74.674 346.622 73.126L345.488 48.448L347.864 44.722L334.04 77.122C334.004 77.266 333.86 77.338 333.608 77.338C333.356 77.338 333.194 77.266 333.122 77.122L318.488 48.232C317.192 45.676 315.5 44.398 313.412 44.398C313.304 44.398 313.25 44.29 313.25 44.074C313.25 43.858 313.304 43.75 313.412 43.75C314.096 43.75 314.816 43.768 315.572 43.804C316.364 43.84 317.03 43.858 317.57 43.858C318.362 43.858 319.064 43.84 319.676 43.804C320.324 43.768 320.828 43.75 321.188 43.75C321.692 43.75 322.07 43.93 322.322 44.29C322.61 44.614 323.06 45.37 323.672 46.558L335.822 70.372L333.5 74.476L346.298 45.1C346.514 44.632 346.748 44.29 347 44.074C347.252 43.858 347.558 43.75 347.918 43.75C348.242 43.75 348.584 43.768 348.944 43.804C349.34 43.84 349.808 43.858 350.348 43.858C351.428 43.858 352.346 43.84 353.102 43.804C353.858 43.768 354.596 43.75 355.316 43.75C355.424 43.75 355.478 43.858 355.478 44.074C355.478 44.29 355.424 44.398 355.316 44.398C353.66 44.398 352.436 44.704 351.644 45.316C350.852 45.928 350.492 46.972 350.564 48.448L351.752 73.126C351.824 74.17 351.95 74.962 352.13 75.502C352.346 76.042 352.742 76.402 353.318 76.582C353.93 76.762 354.812 76.852 355.964 76.852Z" fill="#2C2520"/>
</svg>
