<svg width="120" height="120" viewBox="0 0 120 120" fill="none" xmlns="http://www.w3.org/2000/svg">
<circle cx="60" cy="60" r="52" stroke="#C4B5A0" stroke-width="3"/>
<circle cx="60" cy="60" r="44" stroke="#C4B5A0" stroke-opacity="0.5" stroke-width="1.5"/>
<path d="M46.1875 72.148C45.4228 72.148 44.4732 72.111 43.3385 72.037C42.2038 71.963 41.1678 71.926 40.2305 71.926C39.3425 71.926 38.5038 71.9383 37.7145 71.963C36.9252 71.9877 36.2222 72 35.6055 72C35.5562 72 35.5315 71.926 35.5315 71.778C35.5315 71.63 35.5562 71.556 35.6055 71.556C36.3948 71.556 36.9992 71.4943 37.4185 71.371C37.8378 71.2477 38.1092 71.001 38.2325 70.631C38.3805 70.261 38.4545 69.7183 38.4545 69.003V51.872C38.4545 51.1567 38.3805 50.6263 38.2325 50.281C38.1092 49.911 37.8502 49.6643 37.4555 49.541C37.0608 49.393 36.4565 49.319 35.6425 49.319C35.5932 49.319 35.5685 49.245 35.5685 49.097C35.5685 48.949 35.5932 48.875 35.6425 48.875C36.2838 48.875 36.9868 48.8997 37.7515 48.949C38.5162 48.9737 39.3425 48.986 40.2305 48.986C41.0938 48.986 42.0312 48.9613 43.0425 48.912C44.0785 48.838 44.9542 48.801 45.6695 48.801C48.2595 48.801 50.5165 49.2943 52.4405 50.281C54.3645 51.2677 55.8568 52.612 56.9175 54.314C57.9782 56.016 58.5085 57.9277 58.5085 60.049C58.5085 61.899 58.1878 63.5763 57.5465 65.081C56.9052 66.561 56.0048 67.8313 54.8455 68.892C53.7108 69.928 52.3912 70.7297 50.8865 71.297C49.4065 71.8643 47.8402 72.148 46.1875 72.148ZM45.8175 71.408C47.5195 71.408 49.0242 71.001 50.3315 70.187C51.6388 69.373 52.6625 68.189 53.4025 66.635C54.1672 65.0563 54.5495 63.1323 54.5495 60.863C54.5495 58.7417 54.2042 56.83 53.5135 55.128C52.8228 53.4013 51.8362 52.0447 50.5535 51.058C49.2955 50.0467 47.7908 49.541 46.0395 49.541C44.5842 49.541 43.5358 49.6767 42.8945 49.948C42.2778 50.2193 41.9695 50.8853 41.9695 51.946V68.596C41.9695 69.558 42.2162 70.2733 42.7095 70.742C43.2028 71.186 44.2388 71.408 45.8175 71.408ZM80.9747 72C80.6047 72 79.9881 71.5313 79.1247 70.594C78.2614 69.6567 77.2131 68.3123 75.9797 66.561C74.7711 64.785 73.4144 62.676 71.9097 60.234L74.8697 59.346C76.8677 62.3307 78.5697 64.7233 79.9757 66.524C81.4064 68.3 82.6644 69.5827 83.7497 70.372C84.8597 71.1613 85.9204 71.556 86.9317 71.556C86.9811 71.556 87.0057 71.63 87.0057 71.778C87.0057 71.926 86.9811 72 86.9317 72C85.3777 72 84.1074 72 83.1207 72C82.1587 72 81.4434 72 80.9747 72ZM72.5757 48.764C74.7217 48.764 76.3744 49.1957 77.5337 50.059C78.7177 50.8977 79.3097 52.057 79.3097 53.537C79.3097 54.943 78.9027 56.201 78.0887 57.311C77.2994 58.421 76.2634 59.2843 74.9807 59.901C73.7227 60.5177 72.3661 60.826 70.9107 60.826C70.6147 60.826 70.2941 60.826 69.9487 60.826C69.6034 60.8013 69.2951 60.7767 69.0237 60.752V69.003C69.0237 69.7183 69.0854 70.261 69.2087 70.631C69.3321 71.001 69.5911 71.2477 69.9857 71.371C70.4051 71.4943 71.0094 71.556 71.7987 71.556C71.8727 71.556 71.9097 71.63 71.9097 71.778C71.9097 71.926 71.8727 72 71.7987 72C71.1821 72 70.4914 71.9877 69.7267 71.963C68.9621 71.9383 68.1234 71.926 67.2107 71.926C66.3474 71.926 65.5211 71.9383 64.7317 71.963C63.9424 71.9877 63.2394 72 62.6227 72C62.5487 72 62.5117 71.926 62.5117 71.778C62.5117 71.63 62.5487 71.556 62.6227 71.556C63.4367 71.556 64.0411 71.4943 64.4357 71.371C64.8304 71.2477 65.1017 71.001 65.2497 70.631C65.3977 70.261 65.4717 69.7183 65.4717 69.003V51.872C65.4717 51.1567 65.3977 50.6263 65.2497 50.281C65.1264 49.911 64.8674 49.6643 64.4727 49.541C64.0781 49.393 63.4737 49.319 62.6597 49.319C62.6104 49.319 62.5857 49.245 62.5857 49.097C62.5857 48.949 62.6104 48.875 62.6597 48.875C63.2764 48.875 63.9671 48.8997 64.7317 48.949C65.5211 48.9737 66.3474 48.986 67.2107 48.986C68.0001 48.986 68.8881 48.949 69.8747 48.875C70.8614 48.801 71.7617 48.764 72.5757 48.764ZM75.6467 54.832C75.6467 53.4013 75.4741 52.3037 75.1287 51.539C74.8081 50.7497 74.3517 50.207 73.7597 49.911C73.1677 49.615 72.4771 49.467 71.6877 49.467C70.7257 49.467 70.0351 49.652 69.6157 50.022C69.2211 50.3673 69.0237 51.0087 69.0237 51.946V59.753C69.3691 59.8023 69.7391 59.8393 70.1337 59.864C70.5284 59.8887 70.8737 59.901 71.1697 59.901C72.8224 59.901 73.9817 59.494 74.6477 58.68C75.3137 57.8413 75.6467 56.5587 75.6467 54.832Z" fill="#C17A5A"/>
</svg>
